<svg width="32" height="32" viewBox="0 0 32 32" fill="none" xmlns="http://www.w3.org/2000/svg">
<path d="M28.9998 17.9999C28.9975 20.121 28.1539 22.1545 26.6541 23.6542C25.1543 25.154 23.1208 25.9976 20.9998 25.9999H9.99981C9.73459 25.9999 9.48024 25.8946 9.2927 25.7071C9.10517 25.5195 8.99981 25.2652 8.99981 24.9999C8.99981 24.7347 9.10517 24.4804 9.2927 24.2928C9.48024 24.1053 9.73459 23.9999 9.99981 23.9999H20.9998C22.5911 23.9999 24.1172 23.3678 25.2425 22.2426C26.3677 21.1174 26.9998 19.5912 26.9998 17.9999C26.9998 16.4086 26.3677 14.8825 25.2425 13.7573C24.1172 12.6321 22.5911 11.9999 20.9998 11.9999H6.41356L10.7073 16.2924C10.895 16.4801 11.0004 16.7346 11.0004 16.9999C11.0004 17.2653 10.895 17.5198 10.7073 17.7074C10.5197 17.8951 10.2652 18.0005 9.99981 18.0005C9.73445 18.0005 9.47995 17.8951 9.29231 17.7074L3.29231 11.7074C3.19933 11.6146 3.12557 11.5043 3.07525 11.3829C3.02493 11.2615 2.99902 11.1314 2.99902 10.9999C2.99902 10.8685 3.02493 10.7384 3.07525 10.617C3.12557 10.4956 3.19933 10.3853 3.29231 10.2924L9.29231 4.29245C9.47995 4.10481 9.73445 3.99939 9.99981 3.99939C10.2652 3.99939 10.5197 4.1048 10.7073 4.29245C10.895 4.48009 11.0004 4.73458 11.0004 4.99995C11.0004 5.26531 10.895 5.5198 10.7073 5.70745L6.41356 9.99995H20.9998C23.1208 10.0023 25.1543 10.8459 26.6541 12.3456C28.1539 13.8454 28.9975 15.8789 28.9998 17.9999Z" fill="#1A1A1A"/>
</svg>
